<svg id="visual" viewBox="0 0 960 540" width="960" height="540" xmlns="http://www.w3.org/2000/svg" xmlns:xlink="http://www.w3.org/1999/xlink" version="1.1"><rect x="0" y="0" width="960" height="540" fill="#001122"></rect><path d="M0 370L22.8 368C45.7 366 91.3 362 137 360.8C182.7 359.7 228.3 361.3 274 364C319.7 366.7 365.3 370.3 411.2 376.2C457 382 503 390 548.8 392.8C594.7 395.7 640.3 393.3 686 391C731.7 388.7 777.3 386.3 823 387.3C868.7 388.3 914.3 392.7 937.2 394.8L960 397L960 541L937.2 541C914.3 541 868.7 541 823 541C777.3 541 731.7 541 686 541C640.3 541 594.7 541 548.8 541C503 541 457 541 411.2 541C365.3 541 319.7 541 274 541C228.3 541 182.7 541 137 541C91.3 541 45.7 541 22.8 541L0 541Z" fill="#985c84"></path><path d="M0 358L22.8 361.7C45.7 365.3 91.3 372.7 137 378C182.7 383.3 228.3 386.7 274 394.5C319.7 402.3 365.3 414.7 411.2 421C457 427.3 503 427.7 548.8 420.8C594.7 414 640.3 400 686 396.7C731.7 393.3 777.3 400.7 823 403.2C868.7 405.7 914.3 403.3 937.2 402.2L960 401L960 541L937.2 541C914.3 541 868.7 541 823 541C777.3 541 731.7 541 686 541C640.3 541 594.7 541 548.8 541C503 541 457 541 411.2 541C365.3 541 319.7 541 274 541C228.3 541 182.7 541 137 541C91.3 541 45.7 541 22.8 541L0 541Z" fill="#a47aa1"></path><path d="M0 458L22.8 455.3C45.7 452.7 91.3 447.3 137 439C182.7 430.7 228.3 419.3 274 413.5C319.7 407.7 365.3 407.3 411.2 415.2C457 423 503 439 548.8 444C594.7 449 640.3 443 686 433.2C731.7 423.3 777.3 409.7 823 410.8C868.7 412 914.3 428 937.2 436L960 444L960 541L937.2 541C914.3 541 868.7 541 823 541C777.3 541 731.7 541 686 541C640.3 541 594.7 541 548.8 541C503 541 457 541 411.2 541C365.3 541 319.7 541 274 541C228.3 541 182.7 541 137 541C91.3 541 45.7 541 22.8 541L0 541Z" fill="#b198ba"></path><path d="M0 460L22.8 456.3C45.7 452.7 91.3 445.3 137 444.7C182.7 444 228.3 450 274 454.7C319.7 459.3 365.3 462.7 411.2 466.3C457 470 503 474 548.8 473.3C594.7 472.7 640.3 467.3 686 461.8C731.7 456.3 777.3 450.7 823 446.3C868.7 442 914.3 439 937.2 437.5L960 436L960 541L937.2 541C914.3 541 868.7 541 823 541C777.3 541 731.7 541 686 541C640.3 541 594.7 541 548.8 541C503 541 457 541 411.2 541C365.3 541 319.7 541 274 541C228.3 541 182.7 541 137 541C91.3 541 45.7 541 22.8 541L0 541Z" fill="#c1b5d1"></path><path d="M0 486L22.8 485.8C45.7 485.7 91.3 485.3 137 487C182.7 488.7 228.3 492.3 274 495.7C319.7 499 365.3 502 411.2 499C457 496 503 487 548.8 484.7C594.7 482.3 640.3 486.7 686 487C731.7 487.3 777.3 483.7 823 481.8C868.7 480 914.3 480 937.2 480L960 480L960 541L937.2 541C914.3 541 868.7 541 823 541C777.3 541 731.7 541 686 541C640.3 541 594.7 541 548.8 541C503 541 457 541 411.2 541C365.3 541 319.7 541 274 541C228.3 541 182.7 541 137 541C91.3 541 45.7 541 22.8 541L0 541Z" fill="#d5d2e5"></path></svg>